# xmcd
#
# Track frame offsets:
#	150
#	21815
#	43627
#	66487
#	92917
#	116772
#	136677
#	155825
#	183947
#	206165
#	228827
#
# Disc length: 3270 seconds
#
# Revision: 2
# Processed by: cddbd v1.5.2PL0 Copyright (c) Steve Scherf et al.
# Submitted via: EZCDAudioConverter 8.0.2.1
#
DISCID=980cc40b
DTITLE=Elvis Phương - Đêm Say
DYEAR=1995
DGENRE=World Pop
TTITLE0=Sóng tình
TTITLE1=Đêm Say
TTITLE2=Papa
TTITLE3=Tình khúc buồn
TTITLE4=Vũ điệu tình hồng
TTITLE5=Như giọt sương khuya
TTITLE6=Sầu đông
TTITLE7=Yêu em vào cõi chết
TTITLE8=Trong đôi mắt anh em là tất cả
TTITLE9=Người tình và quê hương
TTITLE10=Một lần miên viễn xót xa
EXTD=
EXTT0=
EXTT1=
EXTT2=
EXTT3=
EXTT4=
EXTT5=
EXTT6=
EXTT7=
EXTT8=
EXTT9=
EXTT10=
PLAYORDER=
